<svg id="Layer_1" data-name="Layer 1" xmlns="http://www.w3.org/2000/svg" viewBox="0 0 98.18 63.66"><defs><style>.cls-1{fill:#004990;}</style></defs><title>Artboard 18</title><path class="cls-1" d="M7.75,5.77V4.48c0-1.4-.64-2-1.38-2-1.15,0-1.52.6-1.52,1.84v8.42c0,1.24.37,1.84,1.52,1.84S7.75,14,7.75,12.9v-2H10.6v1.91a4,4,0,0,1-4.23,4.25A4,4,0,0,1,2,12.81V4.25A4,4,0,0,1,6.37,0C9.22,0,10.6,2.07,10.6,4.55V5.77Z"/><path class="cls-1" d="M13.5,4.25A4,4,0,0,1,17.87,0a4,4,0,0,1,4.37,4.25v8.55a4,4,0,0,1-4.37,4.25,4,4,0,0,1-4.37-4.25Zm2.85,8.49c0,1.24.37,1.84,1.52,1.84s1.52-.6,1.52-1.84V4.32c0-1.24-.37-1.84-1.52-1.84s-1.52.6-1.52,1.84Z"/><path class="cls-1" d="M36.43.23v16.6H33.94v-13h0l-2.58,13H29.94l-2.58-13h0v13H24.84V.23h3.75l2,9.7h0l2-9.7Z"/><path class="cls-1" d="M39.05,16.83V.23h4.09c3.52,0,5.15,1.36,5.15,4.9S46.66,10,43.15,10H41.9v6.81ZM41.9,7.68H43c1.86,0,2.44-.57,2.44-2.55S44.87,2.58,43,2.58H41.9Z"/><path class="cls-1" d="M53.4,16.83H50.55V.23h4c3.2,0,4.83,1.36,4.83,4.9,0,2.67-1,3.75-2,4.18l2.41,7.52H56.9l-2-6.88A13.51,13.51,0,0,1,53.4,10Zm0-9.15h1c1.54,0,2.12-.57,2.12-2.55S56,2.58,54.42,2.58h-1Z"/><path class="cls-1" d="M63.71,16.83H60.95L64,.23h3.54l3.06,16.6H67.85l-.51-3.68H64.21Zm.92-6.16h2.3L65.8,3.54h0Z"/><path class="cls-1" d="M77.37,16.83V.23H85V2.71H80.22V7H83.9V9.47H80.22v4.87h5.1v2.48Z"/><path class="cls-1" d="M87.58,16.83V.23h2.64l3.47,9.5h0V.23h2.58v16.6H93.84L90.2,6.46h0V16.83Z"/><path class="cls-1" d="M5.93,25.32c-.12-1.42-.87-1.84-1.52-1.84-.92,0-1.43.6-1.43,1.63,0,2.83,5.79,4.18,5.79,8.69,0,2.74-1.84,4.25-4.51,4.25S.11,35.95,0,33.46l2.71-.39c.11,1.68.78,2.51,1.7,2.51a1.46,1.46,0,0,0,1.66-1.52c0-3.29-5.79-4.16-5.79-8.92C.28,22.49,1.89,21,4.69,21c2.32,0,3.7,1.68,4,4Z"/><path class="cls-1" d="M10.95,37.83V21.23h7.63v2.48H13.8V28h3.68v2.48H13.8v4.87h5.1v2.48Z"/><path class="cls-1" d="M24,37.83H21.16V21.23h4c3.2,0,4.83,1.36,4.83,4.9,0,2.67-1,3.75-2,4.18l2.41,7.52h-2.9l-2-6.88A13.51,13.51,0,0,1,24,31Zm0-9.15h1c1.54,0,2.12-.57,2.12-2.55s-.57-2.55-2.12-2.55H24Z"/><path class="cls-1" d="M38.48,21.23h2.81l-3.47,16.6H35l-3.47-16.6h2.81l2.07,11.52h0Z"/><path class="cls-1" d="M43.26,37.83V21.23h2.85v16.6Z"/><path class="cls-1" d="M50.92,23.71H48.16V21.23h8.37v2.48H53.77V37.83H50.92Z"/><path class="cls-1" d="M58.21,37.83V21.23h7.63v2.48H61.06V28h3.68v2.48H61.06v4.87h5.1v2.48Z"/><path class="cls-1" d="M74.17,26.77V25.48c0-1.4-.64-2-1.38-2-1.15,0-1.52.6-1.52,1.84v8.42c0,1.24.37,1.84,1.52,1.84s1.38-.6,1.38-1.68v-2H77v1.91a4.3,4.3,0,0,1-8.6,0V25.25A4,4,0,0,1,72.79,21C75.64,21,77,23.07,77,25.55v1.22Z"/><path class="cls-1" d="M81.58,37.83H78.82l3.06-16.6h3.54l3.06,16.6H85.72l-.51-3.68H82.08Zm.92-6.16h2.3l-1.13-7.13h0Z"/><path class="cls-1" d="M95.33,25.32c-.12-1.42-.87-1.84-1.52-1.84-.92,0-1.43.6-1.43,1.63,0,2.83,5.79,4.18,5.79,8.69,0,2.74-1.84,4.25-4.51,4.25s-4.16-2.12-4.28-4.6l2.71-.39c.11,1.68.78,2.51,1.7,2.51a1.46,1.46,0,0,0,1.66-1.52c0-3.29-5.79-4.16-5.79-8.92,0-2.64,1.61-4.14,4.42-4.14,2.32,0,3.7,1.68,4,4Z"/><path class="cls-1" d="M60.1,57.63l-.76-.16a4.11,4.11,0,0,0-.24-.59l.42-.65a.29.29,0,0,0,0-.37L58.3,54.68a.29.29,0,0,0-.21-.09,8,8,0,0,0-.45-1.86l-.14-.34h.08a1.06,1.06,0,0,0,1.06-1.06v-.51a.82.82,0,0,0-.82-.86,1,1,0,0,0-.26,0l-.93.26-1-2.41a2.28,2.28,0,0,0-2-1.31H44.34a2.28,2.28,0,0,0-2,1.31l-1,2.4L40.48,50a1,1,0,0,0-.26,0,.82.82,0,0,0-.82.86v.51a1.06,1.06,0,0,0,1.06,1.06h.07l-.14.34a8,8,0,0,0-.5,2.53v4.8a1.06,1.06,0,0,0,1.06,1.06h1.27a1.06,1.06,0,0,0,1.06-1.06V58.88h7.22v.7a.29.29,0,0,0,.23.29l.76.16a4.11,4.11,0,0,0,.24.59l-.42.65a.29.29,0,0,0,0,.37l1.18,1.18a.29.29,0,0,0,.37,0l.65-.42a4.11,4.11,0,0,0,.59.24l.16.76a.29.29,0,0,0,.29.23h1.66a.29.29,0,0,0,.29-.23l.16-.76a4.11,4.11,0,0,0,.59-.24l.65.42a.29.29,0,0,0,.37,0l1.18-1.18a.29.29,0,0,0,0-.37l-.42-.65a4.11,4.11,0,0,0,.24-.59l.76-.16a.29.29,0,0,0,.23-.29V57.91A.29.29,0,0,0,60.1,57.63ZM45.54,56.51a.43.43,0,0,1-.42.42H42.25a.43.43,0,0,1-.42-.42V55.15a.43.43,0,0,1,.42-.42h2.86a.43.43,0,0,1,.42.42Zm-2.86-3.92a.53.53,0,0,1-.53-.78l1.5-3.66a1.37,1.37,0,0,1,1.17-.78h8.37a1.37,1.37,0,0,1,1.17.78l1.5,3.66a.53.53,0,0,1-.53.78Zm12.73,7.92a1.76,1.76,0,1,1,1.76-1.76A1.76,1.76,0,0,1,55.41,60.51Z"/></svg>