<svg id="Layer_1" data-name="Layer 1" xmlns="http://www.w3.org/2000/svg" viewBox="0 0 67.5 65.67"><defs><style>.cls-1,.cls-2{fill:#fd0;}.cls-1{fill-rule:evenodd;}</style></defs><title>Icono_carrito de compra</title><path class="cls-1" d="M24.71,41H61.5a.79.79,0,0,1,.78.94l-.45,2.38A.79.79,0,0,1,61,45H26a2.58,2.58,0,0,0-2.58,2.58v.22A2.58,2.58,0,0,0,26,50.37H62.26a2,2,0,0,1,2,2h0a2,2,0,0,1-2,2H24.71a6,6,0,0,1-5.95-5.95V47A6,6,0,0,1,24.71,41Z"/><circle class="cls-2" cx="29.75" cy="60.82" r="4.57"/><circle class="cls-2" cx="52.74" cy="60.76" r="4.57"/><path class="cls-1" d="M18.32,7.69l1.76,8.14H64.52a2,2,0,0,1,2,2v1.8a3.49,3.49,0,0,1-.09.66L63.84,33.79l-.22,1.13-1.13,5.93h0l-.44,2.31L58,43.41l.6-3.16,0-.13.25-1.33h0l1.7-8.93L62,22.15h0l.27-1.41a.79.79,0,0,0-.78-.94H20.93l4.61,21.37a1.79,1.79,0,0,1-1.37,2.12l-.58.12A1.79,1.79,0,0,1,21.47,42L14.64,10.36a1.73,1.73,0,0,0-1-1.24L2.14,3.76a1.79,1.79,0,0,1-.87-2.37L1.44,1A1.79,1.79,0,0,1,3.81.17l9.59,4.46h0l2.35,1.09,1.58.73A1.73,1.73,0,0,1,18.32,7.69Z"/><rect class="cls-2" x="21.99" y="29.51" width="39.08" height="2.2"/><rect class="cls-2" x="40.43" y="17.92" width="2.2" height="24.95"/><rect class="cls-2" x="34.25" y="18.16" width="2.2" height="24.95" transform="translate(-2.99 3.83) rotate(-5.95)"/><rect class="cls-2" x="27.17" y="18.98" width="2.2" height="24.95" transform="translate(-3.11 3.1) rotate(-5.95)"/><rect class="cls-2" x="35.25" y="29.37" width="24.95" height="2.2" transform="translate(12.47 74.77) rotate(-84.04)"/><rect class="cls-2" x="42.34" y="29.69" width="24.95" height="2.2" transform="translate(18.5 82.11) rotate(-84.04)"/></svg>