<svg id="Layer_1" data-name="Layer 1" xmlns="http://www.w3.org/2000/svg" viewBox="0 0 40.12 53"><defs><style>.cls-1{fill:#fd0;fill-rule:evenodd;}</style></defs><title>Icono_bases</title><path class="cls-1" d="M10.3,5h7.45V2.48a2.48,2.48,0,0,1,5,0V5h7.45V2.48a2.49,2.49,0,0,1,5,0V5a5,5,0,0,1,5,5V48a5,5,0,0,1-5,5H5.33a5,5,0,0,1-5-5V9.94a5,5,0,0,1,5-5V2.48a2.48,2.48,0,1,1,5,0V5ZM7,35.61a1.65,1.65,0,1,0,0,3.31h26.5a1.65,1.65,0,1,0,0-3.31Zm0-8.28a1.66,1.66,0,0,0,0,3.31h26.5a1.66,1.66,0,1,0,0-3.31Zm0-8.28a1.65,1.65,0,1,0,0,3.31h26.5a1.65,1.65,0,1,0,0-3.31Z"/></svg>