<svg id="Layer_1" data-name="Layer 1" xmlns="http://www.w3.org/2000/svg" viewBox="0 0 24.5 24.25"><defs><style>.cls-1{fill:#fd0;}</style></defs><title>icono whatsapp</title><path class="cls-1" d="M.34,24.25l2.47-5A11.42,11.42,0,0,1,0,11.75,12,12,0,0,1,12.25,0,12,12,0,0,1,24.5,11.75,12,12,0,0,1,12.25,23.5a12.59,12.59,0,0,1-6.31-1.68Zm5.71-4.12.33.21A11.09,11.09,0,0,0,12.25,22,10.52,10.52,0,0,0,23,11.75,10.52,10.52,0,0,0,12.25,1.5,10.52,10.52,0,0,0,1.5,11.75a10,10,0,0,0,2.75,6.83l.36.38L3.49,21.25Z"/><path class="cls-1" d="M17.08,14.69l-1.56-1.56a.81.81,0,0,0-1.15,0l-.79.79-.16-.09a7.83,7.83,0,0,1-1.89-1.37,7.88,7.88,0,0,1-1.37-1.9l-.08-.15.53-.53.26-.26a.81.81,0,0,0,0-1.15L9.33,6.93A.81.81,0,0,0,8.18,7l-.44.44h0A2.54,2.54,0,0,0,7.39,8a2.65,2.65,0,0,0-.16.65C7,10.41,7.8,12,9.92,14.09c2.93,2.93,5.29,2.71,5.4,2.7a2.64,2.64,0,0,0,.65-.16,2.54,2.54,0,0,0,.64-.36h0l.45-.44A.82.82,0,0,0,17.08,14.69Z"/></svg>