<svg id="Layer_1" data-name="Layer 1" xmlns="http://www.w3.org/2000/svg" viewBox="0 0 376.63 69.05"><defs><style>.cls-1,.cls-2{fill:#fd0;}.cls-2{fill-rule:evenodd;}</style></defs><title>logo goodyear_pie de pagina</title><path class="cls-1" d="M36.86,19.18a1.06,1.06,0,0,1,.43,1.59l-2.5,3.78c-.32.48-.69.69-1.55.16a12.89,12.89,0,0,0-6.54-1.86c-3,0-5.75.85-6.33,3L15.64,45.93c-.48,2,1,2.92,3.09,2.92H20a.89.89,0,0,0,1-.8l2.71-11.54A1.43,1.43,0,0,1,25,35.46H39.63a.87.87,0,0,1,.8,1.06l-4,17.13a1.55,1.55,0,0,1-1.33,1.06H14.26C4.21,54.71,0,46.94,0,39.5c0-15.53,11.92-23,26-23A21.32,21.32,0,0,1,36.86,19.18Z"/><path class="cls-1" d="M86.06,32.85c0,11.54-7.82,22.66-23,22.66-10.43,0-18.67-5.21-18.67-16.22,0-13.61,9.94-22.81,23.72-22.81C78.61,16.47,86.06,21.79,86.06,32.85ZM70.63,26c.64-2.61-.16-3.83-2.18-3.83-2.4,0-3,1.06-3.77,4.25L60.06,45.88c-.59,2.5-.16,3.88,2.12,3.88s3-1.07,3.67-3.67Z"/><path class="cls-1" d="M130.9,32.85c0,11.54-7.82,22.66-23,22.66-10.42,0-18.67-5.21-18.67-16.22,0-13.61,9.95-22.81,23.72-22.81C123.45,16.47,130.9,21.79,130.9,32.85ZM115.48,26c.63-2.61-.16-3.83-2.18-3.83-2.4,0-3,1.06-3.78,4.25l-4.63,19.41c-.59,2.5-.16,3.88,2.13,3.88s3-1.07,3.67-3.67Z"/><path class="cls-1" d="M162.66,17.27c10.58,0,14.57,7,14.57,14.09,0,11.65-7.76,23.35-21.22,23.35H133.08a.87.87,0,0,1-.8-1.06l8.35-35.32c.21-.8.53-1.06,1.33-1.06ZM161.48,26c.58-2.5-.16-2.92-3.93-2.92a1,1,0,0,0-1.07.8l-5.69,24c-.16.69.05,1,.59,1,3.46,0,4.73,0,5.32-2.39Z"/><path class="cls-1" d="M223.56,38.49l-6.33-20.16c-.21-.69.05-1.06.74-1.06h15.58a1.42,1.42,0,0,1,1.38,1.06L238.55,30l9.36-11.65a2.48,2.48,0,0,1,2-1.06h7.45c.64,0,.74.37.16,1.06L240.68,38.7l-3.57,14.95a1.54,1.54,0,0,1-1.33,1.06H220.73a.86.86,0,0,1-.8-1.06Z"/><path class="cls-1" d="M291.1,17.27a.86.86,0,0,1,.8,1.06l-1.06,4.52a1.55,1.55,0,0,1-1.33,1.06H278.18A1.54,1.54,0,0,0,276.9,25l-1.54,6.49c-.05.42.16.64.64.64h7a.87.87,0,0,1,.8,1.07l-1,4.52a1.55,1.55,0,0,1-1.33,1.06h-6.91a.9.9,0,0,0-1,.58l-1.92,7.92c-.1.53.05.8.59.8h11.54a.86.86,0,0,1,.8,1.06l-1.06,4.52a1.55,1.55,0,0,1-1.33,1.06H253.71a.87.87,0,0,1-.8-1.06l8.35-35.32c.21-.8.53-1.06,1.33-1.06Z"/><path class="cls-1" d="M325.73,53.65a1,1,0,0,1-1,1.06H310.14A1.12,1.12,0,0,1,309,53.65l-.43-4a.81.81,0,0,0-.9-.8H296.32a1.44,1.44,0,0,0-1.28.8l-2.44,4a2,2,0,0,1-1.7,1.06h-5.43c-.53,0-.74-.53-.43-1.06l21.44-35.42a1.89,1.89,0,0,1,1.7-1.07h12.66A1.12,1.12,0,0,1,322,18.23Zm-19-11.49c.53,0,.79-.26.74-.8l-1-9.31c-.05-.48-.43-.53-.75,0l-5.48,9.31q-.48.8.32.8Z"/><path class="cls-1" d="M363.18,17.27c10.16,0,13.45,4.84,13.45,10.21,0,3.24-1.17,9.94-7.29,13.62a1.12,1.12,0,0,0-.59,1.38l2.45,11.12c.11.58-.1,1.12-.8,1.12H354.77a1.29,1.29,0,0,1-1.28-1.06l-2-9.1c-.1-.53-.21-1-.74-1h-.53c-.54,0-.91.27-1.06,1l-2.13,9a1.54,1.54,0,0,1-1.33,1.06H330.68a.87.87,0,0,1-.8-1.06l8.36-35.32c.21-.8.53-1.06,1.32-1.06ZM359.08,26c.58-2.5-.16-2.92-3.94-2.92a1,1,0,0,0-1.07.8l-3,12.87c-.16.69.05,1,.59,1,3.46,0,4.68,0,5.27-2.39Z"/><path class="cls-2" d="M186.06,33.6c2.34,4.53,5.2,9.76,7.31,14.34l-.24.66c-6.29,6.21-12.54,14.35-21,16.58-.81.09-1-.53-1.23-1.14.11-4.29,4.78-6.4,6.59-10,1.71-3.1,2.1-6.78,3.67-10s2.56-6.78,4.41-9.93Z"/><path class="cls-2" d="M172.61,67c14-4.82,22.14-21.11,35.4-28.19,1.23-.61,2.22-1.74,3.59-1.93a3.2,3.2,0,0,1,1,1.93c-9.36,5.34-17.77,13.91-25.62,21.86a43.71,43.71,0,0,1-13.42,8.36,7,7,0,0,1-1-2"/><path class="cls-2" d="M182.15,16.12c5.08-3.18,10-5.93,14.83-8.35a16.42,16.42,0,0,0-.12,8l-.24.47-10.43,6h-.67a59.94,59.94,0,0,1-3.61-5.67Z"/><path class="cls-2" d="M187,24.62c3.39-.09,6.13.56,9,.78v.38a58.23,58.23,0,0,1-9.06,4.5c0-1.89.43-3.77.11-5.66"/><path class="cls-2" d="M187.66,32.73a90.5,90.5,0,0,1,10.63-5.63,18.46,18.46,0,0,0,4.5,6.94c2.18-.75,2.56-3.34,4.45-4.28l3.37,5.29-.14.37c-5.15,3.24-10.44,6.62-15.17,11.13h-.47c-2.54-4.54-5-9.12-7.18-13.83"/><path class="cls-2" d="M198.32,17.86,198,23.14a43.84,43.84,0,0,1-8.15-.22l-.23-.23,8.17-4.83Z"/><path class="cls-2" d="M202,4.15C207.42-.5,215.11,1.08,222.27,1A96.11,96.11,0,0,0,250,0c.23,2.74-1.9,5.13-4.22,6.54-6.23,3.33-14.1,2.18-21.17,1.77v.43l2.92,1.14c-.05.94-1.09,1.45-1.8,1.83-1.14.48-2.5.42-3.64.89.34.42,1.28.1,1.13.9-2.08,2.3-5.61,2.29-8.26,1.19l-.32.38c.08,2.27,0,4.76-1.29,6.65-.9.14-1.41-.67-2.12-1-.57,1.41-.34,3.4-1.42,4.62-.95,0-1.69-1.27-2.54-1.61-1,2.26-1.66,4.71-3.33,6.69-1.69-.1-2.54-2.18-3.24-3.5a21.7,21.7,0,0,1-.21-8.86c-1.65-2.55-2.91-5.85-1.67-9.06A9.18,9.18,0,0,1,202,4.15m2.71,9.77-2.27-.24.19.42c1.65.15,1.34,2.34,2.7,2.72l-.63-2.9,1.14-5.32a3.58,3.58,0,0,0,2.93.24c.8-1.22,2.48-1.1,3.84-1.14,1.13-.23,1-2.43,2.48-1.81.53-.14,1.42-.51,1.38-1-1.51.84-3.25-1.33-4.2.55-.9.8-2.31.75-3.4.89a3.53,3.53,0,0,1-3,2.26Z"/></svg>