<svg id="Layer_1" data-name="Layer 1" xmlns="http://www.w3.org/2000/svg" viewBox="0 0 154.52 37.85"><defs><style>.cls-1{fill:#fff;}.cls-2{fill:#ff4f00;}</style></defs><title>Logo cambia tu neumatico</title><path class="cls-1" d="M6.68,7.51a2.36,2.36,0,0,0-.38-1,1.61,1.61,0,0,0-1.4-.62A1.84,1.84,0,0,0,3,7.2a5.55,5.55,0,0,0-.26,1.88A5.11,5.11,0,0,0,3,10.89a1.78,1.78,0,0,0,1.8,1.27,1.59,1.59,0,0,0,1.33-.5,2.51,2.51,0,0,0,.48-1.31H9.38a4.46,4.46,0,0,1-.88,2.3,4.28,4.28,0,0,1-3.72,1.75,4.35,4.35,0,0,1-3.62-1.46A5.89,5.89,0,0,1,0,9.15,6,6,0,0,1,1.28,5.07,4.47,4.47,0,0,1,4.82,3.61,5.33,5.33,0,0,1,8,4.47a4,4,0,0,1,1.45,3Z"/><path class="cls-1" d="M16.05,7.85a4.26,4.26,0,0,0,1.06-.23.8.8,0,0,0,.57-.76A.9.9,0,0,0,17.25,6,2.8,2.8,0,0,0,16,5.75a1.7,1.7,0,0,0-1.36.47,1.93,1.93,0,0,0-.38.93H11.65A3.91,3.91,0,0,1,12.4,5,4.38,4.38,0,0,1,16,3.61a6.5,6.5,0,0,1,3,.66,2.55,2.55,0,0,1,1.31,2.51v4.68q0,.49,0,1.18a1.47,1.47,0,0,0,.16.71,1,1,0,0,0,.39.31V14H18a3,3,0,0,1-.17-.58c0-.18-.06-.39-.07-.62a5.5,5.5,0,0,1-1.28,1,3.87,3.87,0,0,1-2,.5,3.38,3.38,0,0,1-2.3-.79,2.81,2.81,0,0,1-.91-2.24,2.9,2.9,0,0,1,1.46-2.72A6.51,6.51,0,0,1,15.14,8Zm1.63,1.24a3,3,0,0,1-.52.26,4.38,4.38,0,0,1-.72.18l-.61.11a4,4,0,0,0-1.23.37A1.22,1.22,0,0,0,14,11.14a1.18,1.18,0,0,0,.38,1,1.46,1.46,0,0,0,.94.3,2.79,2.79,0,0,0,1.61-.5,2.14,2.14,0,0,0,.76-1.84Z"/><path class="cls-1" d="M36.17,3.89a3,3,0,0,1,1.77,2.23A9.15,9.15,0,0,1,38,7.62L38,14H35.28V7.56a2.13,2.13,0,0,0-.19-1,1.33,1.33,0,0,0-1.31-.71,1.53,1.53,0,0,0-1.52.92A2.88,2.88,0,0,0,32,8V14H29.36V8a3.4,3.4,0,0,0-.19-1.32,1.31,1.31,0,0,0-1.32-.74,1.57,1.57,0,0,0-1.53.74,2.84,2.84,0,0,0-.21,1.25V14H23.4V3.87H26V5.36a4.28,4.28,0,0,1,.93-1.13,3.2,3.2,0,0,1,2-.6,3.18,3.18,0,0,1,1.89.51,3,3,0,0,1,.88,1.23A3.38,3.38,0,0,1,33,4.05a4,4,0,0,1,1.83-.42A3.54,3.54,0,0,1,36.17,3.89Z"/><path class="cls-1" d="M50,5.08a5.86,5.86,0,0,1,1.14,3.74A6.56,6.56,0,0,1,50,12.76a4.09,4.09,0,0,1-5.19,1.06,4.08,4.08,0,0,1-1-1V14H41.17V.28h2.66v4.9A3.89,3.89,0,0,1,45,4.1a3.34,3.34,0,0,1,1.84-.47A3.81,3.81,0,0,1,50,5.08Zm-2.23,6.21a3.78,3.78,0,0,0,.58-2.19A4.9,4.9,0,0,0,48,7.31,2,2,0,0,0,46,6a2,2,0,0,0-2,1.32,4.91,4.91,0,0,0-.28,1.81,3.78,3.78,0,0,0,.58,2.17,2,2,0,0,0,1.78.86A1.85,1.85,0,0,0,47.74,11.29Z"/><path class="cls-1" d="M56.48,2.64h-2.7V.18h2.7Zm-2.7,1.22h2.7V14h-2.7Z"/><path class="cls-1" d="M63.89,7.85A4.26,4.26,0,0,0,65,7.61a.8.8,0,0,0,.57-.76A.9.9,0,0,0,65.08,6a2.8,2.8,0,0,0-1.29-.24,1.7,1.7,0,0,0-1.36.47,1.93,1.93,0,0,0-.38.93H59.48A3.91,3.91,0,0,1,60.24,5a4.38,4.38,0,0,1,3.64-1.35,6.5,6.5,0,0,1,3,.66,2.55,2.55,0,0,1,1.31,2.51v4.68q0,.49,0,1.18a1.47,1.47,0,0,0,.16.71,1,1,0,0,0,.39.31V14h-2.9a3,3,0,0,1-.17-.58c0-.18-.06-.39-.07-.62a5.5,5.5,0,0,1-1.28,1,3.87,3.87,0,0,1-2,.5,3.38,3.38,0,0,1-2.3-.79,2.81,2.81,0,0,1-.91-2.24,2.9,2.9,0,0,1,1.46-2.72A6.51,6.51,0,0,1,63,8Zm1.63,1.24a3,3,0,0,1-.52.26,4.38,4.38,0,0,1-.72.18l-.61.11a4,4,0,0,0-1.23.37,1.22,1.22,0,0,0-.63,1.13,1.18,1.18,0,0,0,.38,1,1.46,1.46,0,0,0,.94.3,2.79,2.79,0,0,0,1.61-.5,2.14,2.14,0,0,0,.76-1.84Z"/><path class="cls-1" d="M76.34,5.85V3.95h1.42V1.11H80.4V3.95h1.66v1.9H80.4v5.39a1.22,1.22,0,0,0,.16.78,1.76,1.76,0,0,0,1,.15h.52v2l-1.26,0a3.39,3.39,0,0,1-2.58-.66,2,2,0,0,1-.45-1.41V5.85Z"/><path class="cls-1" d="M87.21,3.86V10a3.23,3.23,0,0,0,.2,1.31,1.42,1.42,0,0,0,1.42.78A1.86,1.86,0,0,0,90.7,11,4,4,0,0,0,91,9.4V3.86h2.7V14H91.07V12.61l-.19.28a1.89,1.89,0,0,1-.35.41,3.68,3.68,0,0,1-1.21.77,4.12,4.12,0,0,1-1.37.21,3,3,0,0,1-3-1.63A6.25,6.25,0,0,1,84.48,10V3.86Z"/><path class="cls-1" d="M8.8,20.4a3.37,3.37,0,0,1,1,2.74V30H7.07v-6.2a2.86,2.86,0,0,0-.21-1.23,1.5,1.5,0,0,0-1.49-.79,1.84,1.84,0,0,0-1.85,1.15,4,4,0,0,0-.26,1.55V30H.6V19.83H3.18v1.49a4.51,4.51,0,0,1,1-1.13,3.35,3.35,0,0,1,2.08-.62A3.91,3.91,0,0,1,8.8,20.4Z"/><path class="cls-1" d="M18.92,20a4.15,4.15,0,0,1,1.76,1.51,5,5,0,0,1,.81,2.11,13,13,0,0,1,.09,2H14.16a2.44,2.44,0,0,0,1.07,2.15,2.71,2.71,0,0,0,1.47.38,2.07,2.07,0,0,0,2-1.17h2.72a3.33,3.33,0,0,1-1,1.84,5,5,0,0,1-3.83,1.49A5.55,5.55,0,0,1,13,29.1,4.94,4.94,0,0,1,11.47,25,5.52,5.52,0,0,1,12.88,21a4.91,4.91,0,0,1,3.64-1.41A5.8,5.8,0,0,1,18.92,20Zm-4,2.3a2.77,2.77,0,0,0-.71,1.58h4.59a2.22,2.22,0,0,0-.71-1.61,2.33,2.33,0,0,0-1.58-.55A2.11,2.11,0,0,0,14.93,22.32Z"/><path class="cls-1" d="M25.58,19.81V26a3.23,3.23,0,0,0,.2,1.31,1.42,1.42,0,0,0,1.42.78,1.86,1.86,0,0,0,1.86-1.1,4,4,0,0,0,.26-1.58V19.81H32V30H29.44V28.57l-.19.28a1.89,1.89,0,0,1-.35.41A3.68,3.68,0,0,1,27.7,30a4.12,4.12,0,0,1-1.37.21,3,3,0,0,1-3-1.63A6.25,6.25,0,0,1,22.85,26V19.81Z"/><path class="cls-1" d="M47.34,19.85a3,3,0,0,1,1.77,2.23,9.15,9.15,0,0,1,.09,1.5l0,6.42H46.45V23.52a2.13,2.13,0,0,0-.19-1A1.33,1.33,0,0,0,45,21.85a1.53,1.53,0,0,0-1.52.92,2.88,2.88,0,0,0-.21,1.17V30H40.53V23.94a3.4,3.4,0,0,0-.19-1.32A1.31,1.31,0,0,0,39,21.88a1.57,1.57,0,0,0-1.53.74,2.84,2.84,0,0,0-.21,1.25V30h-2.7V19.83h2.59v1.49a4.28,4.28,0,0,1,.93-1.13A3.7,3.7,0,0,1,42,20.1a3,3,0,0,1,.88,1.23A3.38,3.38,0,0,1,44.18,20,4,4,0,0,1,46,19.59,3.54,3.54,0,0,1,47.34,19.85Z"/><path class="cls-1" d="M55.69,23.81a4.26,4.26,0,0,0,1.06-.23.8.8,0,0,0,.57-.76.9.9,0,0,0-.44-.87,2.8,2.8,0,0,0-1.29-.24,1.7,1.7,0,0,0-1.36.47,1.93,1.93,0,0,0-.38.93H51.29a3.91,3.91,0,0,1,.75-2.2,4.38,4.38,0,0,1,3.64-1.35,6.5,6.5,0,0,1,3,.66A2.55,2.55,0,0,1,60,22.74v4.68q0,.49,0,1.18a1.47,1.47,0,0,0,.16.71,1,1,0,0,0,.39.31V30h-2.9a3,3,0,0,1-.17-.58c0-.18-.06-.39-.07-.62a5.5,5.5,0,0,1-1.28,1,3.87,3.87,0,0,1-2,.5,3.38,3.38,0,0,1-2.3-.79A2.81,2.81,0,0,1,51,27.29a2.9,2.9,0,0,1,1.46-2.72,6.51,6.51,0,0,1,2.35-.65ZM57.32,25a3,3,0,0,1-.52.26,4.38,4.38,0,0,1-.72.18l-.61.11a4,4,0,0,0-1.23.37,1.22,1.22,0,0,0-.63,1.13,1.18,1.18,0,0,0,.38,1,1.46,1.46,0,0,0,.94.3,2.79,2.79,0,0,0,1.61-.5A2.14,2.14,0,0,0,57.32,26Z"/><path class="cls-1" d="M61.25,21.8v-1.9h1.42V17.06h2.64v2.84H67v1.9H65.31v5.39a1.22,1.22,0,0,0,.16.78,1.76,1.76,0,0,0,1,.15H67v2l-1.26,0a3.39,3.39,0,0,1-2.58-.66,2,2,0,0,1-.45-1.41V21.8Z"/><path class="cls-1" d="M71.42,18.6h-2.7V16.14h2.7Zm-2.7,1.22h2.7V30h-2.7Z"/><path class="cls-1" d="M80.09,23.47a2.36,2.36,0,0,0-.38-1,1.61,1.61,0,0,0-1.4-.62,1.84,1.84,0,0,0-1.85,1.34A5.55,5.55,0,0,0,76.2,25a5.11,5.11,0,0,0,.26,1.8,1.78,1.78,0,0,0,1.8,1.27,1.59,1.59,0,0,0,1.33-.5,2.51,2.51,0,0,0,.48-1.31H82.8a4.46,4.46,0,0,1-.88,2.3,4.28,4.28,0,0,1-3.72,1.75,4.35,4.35,0,0,1-3.62-1.46,5.89,5.89,0,0,1-1.16-3.78A6,6,0,0,1,74.7,21a4.47,4.47,0,0,1,3.54-1.46,5.33,5.33,0,0,1,3.14.86,4,4,0,0,1,1.45,3Z"/><path class="cls-1" d="M93.15,28.76a5.62,5.62,0,0,1-7.84,0A5.9,5.9,0,0,1,84,24.92a5.94,5.94,0,0,1,1.29-3.82,5.56,5.56,0,0,1,7.84,0,5.94,5.94,0,0,1,1.29,3.82A5.9,5.9,0,0,1,93.15,28.76ZM91,27.29a3.86,3.86,0,0,0,.63-2.36A3.84,3.84,0,0,0,91,22.57a2.37,2.37,0,0,0-3.6,0,3.82,3.82,0,0,0-.63,2.36,3.84,3.84,0,0,0,.63,2.36,2.36,2.36,0,0,0,3.6,0Z"/><path class="cls-2" d="M154.21,23.59l-5.34-7.21a1.56,1.56,0,0,0-1.26-.63h-47A1.56,1.56,0,0,0,99,17.31V31.73a1.56,1.56,0,0,0,1.56,1.56h4.94a4.55,4.55,0,0,0,9.1,0h19.5a4.55,4.55,0,1,0,9.1,0h4.41a1.56,1.56,0,0,0,1.26-.63l5.34-7.21A1.56,1.56,0,0,0,154.21,23.59Z"/><path class="cls-1" d="M103.44,26.75h2.82v2.78h-2.82Z"/><path class="cls-1" d="M114.85,23a2.34,2.34,0,0,0-.38-1,1.61,1.61,0,0,0-1.39-.61,1.83,1.83,0,0,0-1.84,1.33A5.51,5.51,0,0,0,111,24.6a5.06,5.06,0,0,0,.26,1.79A1.77,1.77,0,0,0,113,27.65a1.58,1.58,0,0,0,1.32-.5,2.49,2.49,0,0,0,.48-1.3h2.71a4.44,4.44,0,0,1-.88,2.29,4.26,4.26,0,0,1-3.7,1.74,4.32,4.32,0,0,1-3.6-1.45,5.86,5.86,0,0,1-1.16-3.76,6,6,0,0,1,1.28-4.06A4.44,4.44,0,0,1,113,19.15a5.3,5.3,0,0,1,3.12.86,4,4,0,0,1,1.44,3Z"/><path class="cls-1" d="M127.83,28.29a5.59,5.59,0,0,1-7.8,0,5.87,5.87,0,0,1-1.28-3.82,5.91,5.91,0,0,1,1.28-3.8,5.53,5.53,0,0,1,7.8,0,5.91,5.91,0,0,1,1.28,3.8A5.87,5.87,0,0,1,127.83,28.29Zm-2.12-1.47a3.85,3.85,0,0,0,.62-2.35,3.83,3.83,0,0,0-.62-2.35,2.36,2.36,0,0,0-3.58,0,3.8,3.8,0,0,0-.63,2.35,3.82,3.82,0,0,0,.63,2.35,2.35,2.35,0,0,0,3.58,0Z"/><path class="cls-1" d="M143.67,19.43a3,3,0,0,1,1.76,2.21,9.07,9.07,0,0,1,.09,1.5l0,6.39h-2.72V23.08a2.12,2.12,0,0,0-.19-.95,1.32,1.32,0,0,0-1.3-.71,1.52,1.52,0,0,0-1.52.91,2.87,2.87,0,0,0-.21,1.16v6H136.9v-6a3.39,3.39,0,0,0-.19-1.31,1.3,1.3,0,0,0-1.31-.74,1.56,1.56,0,0,0-1.53.74,2.83,2.83,0,0,0-.21,1.25v6.1H131V19.41h2.58v1.48a4.27,4.27,0,0,1,.93-1.13,3.68,3.68,0,0,1,3.88-.08,3,3,0,0,1,.87,1.22,3.38,3.38,0,0,1,1.29-1.31,4,4,0,0,1,1.82-.42A3.52,3.52,0,0,1,143.67,19.43Z"/></svg>