<svg id="Layer_1" data-name="Layer 1" xmlns="http://www.w3.org/2000/svg" viewBox="0 0 197 36.56"><defs><style>.cls-1,.cls-2{fill:#fd0;}.cls-2{fill-rule:evenodd;}</style></defs><title>Logo gy arriba</title><path class="cls-1" d="M19.28,10.4a.56.56,0,0,1,.22.84l-1.31,2c-.17.25-.36.36-.81.08a6.73,6.73,0,0,0-3.42-1c-1.56,0-3,.45-3.31,1.56L8.18,24.44C7.93,25.47,8.71,26,9.8,26h.67a.46.46,0,0,0,.5-.42l1.42-6.05a.75.75,0,0,1,.7-.56h7.65a.45.45,0,0,1,.42.56l-2.11,9a.81.81,0,0,1-.7.56H7.46C2.2,29,0,25,0,21.06,0,12.91,6.23,9,13.61,9A11.13,11.13,0,0,1,19.28,10.4Z"/><path class="cls-1" d="M45,17.57c0,6.05-4.09,11.88-12,11.88-5.45,0-9.77-2.73-9.77-8.51,0-7.14,5.2-12,12.41-12C41.12,9,45,11.77,45,17.57ZM36.95,14c.34-1.37-.08-2-1.14-2-1.25,0-1.59.56-2,2.23L31.41,24.41c-.31,1.31-.08,2,1.11,2s1.59-.56,1.92-1.92Z"/><path class="cls-1" d="M68.47,17.57c0,6.05-4.09,11.88-12,11.88-5.45,0-9.76-2.73-9.76-8.51,0-7.14,5.2-12,12.41-12C64.57,9,68.47,11.77,68.47,17.57ZM60.4,14c.33-1.37-.08-2-1.14-2-1.25,0-1.59.56-2,2.23L54.86,24.41c-.31,1.31-.08,2,1.11,2s1.59-.56,1.92-1.92Z"/><path class="cls-1" d="M85.08,9.4c5.54,0,7.62,3.65,7.62,7.39C92.7,22.9,88.64,29,81.6,29h-12a.45.45,0,0,1-.42-.56L73.56,10c.11-.42.28-.56.7-.56ZM84.46,14c.3-1.31-.08-1.53-2.06-1.53a.52.52,0,0,0-.56.42l-3,12.58c-.08.36,0,.5.31.5C81,26,81.66,26,82,24.72Z"/><path class="cls-1" d="M116.93,20.53,113.62,10c-.11-.36,0-.56.39-.56h8.15a.74.74,0,0,1,.72.56l1.89,6.11L129.67,10a1.3,1.3,0,0,1,1-.56h3.9c.33,0,.39.19.08.56l-8.79,10.69L124,28.48a.81.81,0,0,1-.69.56h-7.87a.45.45,0,0,1-.42-.56Z"/><path class="cls-1" d="M152.26,9.4a.45.45,0,0,1,.42.56l-.56,2.37a.81.81,0,0,1-.7.56H145.5a.8.8,0,0,0-.67.56l-.81,3.4c0,.22.08.33.33.33H148a.45.45,0,0,1,.42.56l-.53,2.37a.81.81,0,0,1-.7.56h-3.61a.47.47,0,0,0-.5.31l-1,4.16c-.05.28,0,.42.31.42h6a.45.45,0,0,1,.42.56l-.56,2.37a.81.81,0,0,1-.69.56H132.71a.45.45,0,0,1-.42-.56L136.66,10c.11-.42.28-.56.7-.56Z"/><path class="cls-1" d="M170.38,28.48a.53.53,0,0,1-.5.56h-7.65a.59.59,0,0,1-.61-.56l-.22-2.09a.42.42,0,0,0-.47-.42H155a.75.75,0,0,0-.67.42L153,28.48a1.07,1.07,0,0,1-.89.56h-2.84c-.28,0-.39-.28-.22-.56L160.31,9.9a1,1,0,0,1,.89-.56h6.62a.59.59,0,0,1,.61.56Zm-10-6c.28,0,.42-.14.39-.42l-.5-4.88c0-.25-.22-.28-.39,0L157,22q-.25.42.17.42Z"/><path class="cls-1" d="M190,9.4c5.31,0,7,2.54,7,5.36a8.37,8.37,0,0,1-3.81,7.14.59.59,0,0,0-.31.72l1.28,5.83c.06.31-.05.59-.42.59h-8.18a.67.67,0,0,1-.67-.56l-1-4.77c-.05-.28-.11-.5-.39-.5h-.28c-.28,0-.47.14-.56.53l-1.11,4.74a.81.81,0,0,1-.69.56H173a.46.46,0,0,1-.42-.56L176.91,10c.11-.42.28-.56.69-.56ZM187.82,14c.31-1.31-.08-1.53-2.06-1.53a.52.52,0,0,0-.56.42l-1.59,6.75c-.08.36,0,.5.31.5,1.81,0,2.45,0,2.75-1.26Z"/><path class="cls-2" d="M97.32,18c1.23,2.38,2.72,5.12,3.82,7.52l-.12.35c-3.29,3.26-6.56,7.53-11,8.7-.42,0-.55-.28-.65-.6.06-2.25,2.5-3.36,3.45-5.26.89-1.63,1.1-3.56,1.92-5.24a43.63,43.63,0,0,1,2.31-5.21Z"/><path class="cls-2" d="M90.29,35.5C97.6,33,101.87,24.43,108.8,20.71c.64-.32,1.16-.91,1.88-1a1.68,1.68,0,0,1,.54,1c-4.89,2.8-9.3,7.3-13.4,11.46a22.85,22.85,0,0,1-7,4.38,3.7,3.7,0,0,1-.52-1.07"/><path class="cls-2" d="M95.27,8.8c2.66-1.67,5.23-3.11,7.76-4.38A8.64,8.64,0,0,0,103,8.62l-.13.25L97.39,12H97a31.45,31.45,0,0,1-1.89-3Z"/><path class="cls-2" d="M97.8,13.25a39.93,39.93,0,0,1,4.68.41v.2a30.42,30.42,0,0,1-4.74,2.36,15.23,15.23,0,0,0,.06-3"/><path class="cls-2" d="M98.16,17.51a47.29,47.29,0,0,1,5.56-3,9.69,9.69,0,0,0,2.35,3.64c1.14-.39,1.34-1.75,2.33-2.25l1.76,2.77-.07.2a48.44,48.44,0,0,0-7.94,5.84h-.25c-1.33-2.38-2.63-4.78-3.76-7.26"/><path class="cls-2" d="M103.73,9.71l-.19,2.77a22.87,22.87,0,0,1-4.26-.11l-.12-.12,4.27-2.54Z"/><path class="cls-2" d="M105.65,2.52C108.49.08,112.51.91,116.26.85a50.13,50.13,0,0,0,14.51-.5,4,4,0,0,1-2.21,3.43c-3.26,1.75-7.38,1.14-11.07.93v.23l1.53.6c0,.5-.57.76-.94,1-.59.25-1.31.22-1.91.47.18.22.67.05.59.47a3.85,3.85,0,0,1-4.32.63l-.17.2a5.83,5.83,0,0,1-.68,3.49c-.47.07-.74-.35-1.11-.52-.3.74-.18,1.78-.74,2.42-.49,0-.89-.67-1.33-.84a14.47,14.47,0,0,1-1.74,3.51c-.89-.05-1.33-1.14-1.69-1.84a11.42,11.42,0,0,1-.11-4.65A5.32,5.32,0,0,1,104,5.06a4.82,4.82,0,0,1,1.66-2.54m1.42,5.12-1.19-.13.1.22c.86.08.7,1.23,1.41,1.43l-.33-1.52.6-2.79A1.87,1.87,0,0,0,109.2,5c.42-.64,1.3-.58,2-.6s.53-1.27,1.3-1c.28-.07.74-.27.72-.52-.79.44-1.7-.7-2.2.29a3.2,3.2,0,0,1-1.78.46,1.85,1.85,0,0,1-1.58,1.19Z"/></svg>