<svg id="Layer_1" data-name="Layer 1" xmlns="http://www.w3.org/2000/svg" viewBox="0 0 87.9 46.53"><defs><style>.cls-1,.cls-2{fill:#004990;}.cls-2{fill-rule:evenodd;}</style></defs><title>Menu_usuarios</title><path class="cls-1" d="M0,.25H3.1V13.87c0,1.32.52,2,1.65,2s1.65-.65,1.65-2V.25H9.5v13.5c0,3.1-1.8,4.8-4.75,4.8S0,16.85,0,13.75Z"/><path class="cls-1" d="M18.15,4.7c-.12-1.55-1-2-1.65-2-1,0-1.55.65-1.55,1.77,0,3.07,6.3,4.55,6.3,9.45,0,3-2,4.62-4.9,4.62s-4.52-2.3-4.65-5l2.95-.42c.13,1.82.85,2.72,1.85,2.72a1.59,1.59,0,0,0,1.8-1.65c0-3.57-6.3-4.52-6.3-9.7C12,1.63,13.75,0,16.8,0c2.52,0,4,1.83,4.3,4.37Z"/><path class="cls-1" d="M23.6.25h3.1V13.87c0,1.32.53,2,1.65,2s1.65-.65,1.65-2V.25h3.1v13.5c0,3.1-1.8,4.8-4.75,4.8s-4.75-1.7-4.75-4.8Z"/><path class="cls-1" d="M37.9,18.3h-3l3.32-18h3.85l3.32,18h-3l-.55-4h-3.4Zm1-6.7h2.5L40.17,3.85h-.05Z"/><path class="cls-1" d="M50.3,18.3H47.2V.25h4.35C55,.25,56.8,1.72,56.8,5.57c0,2.9-1.12,4.07-2.17,4.55l2.63,8.17H54.1l-2.2-7.47a14.72,14.72,0,0,1-1.6.08Zm0-9.95h1.1c1.67,0,2.3-.62,2.3-2.77S53.07,2.8,51.4,2.8H50.3Z"/><path class="cls-1" d="M60.12,18.3V.25h3.1v18Z"/><path class="cls-1" d="M66.65,4.62C66.65,2.08,68.15,0,71.4,0s4.75,2.08,4.75,4.62v9.3c0,2.55-1.5,4.62-4.75,4.62s-4.75-2.07-4.75-4.62Zm3.1,9.22c0,1.35.4,2,1.65,2s1.65-.65,1.65-2V4.7c0-1.35-.4-2-1.65-2s-1.65.65-1.65,2Z"/><path class="cls-1" d="M84.8,4.7c-.12-1.55-1-2-1.65-2-1,0-1.55.65-1.55,1.77,0,3.07,6.3,4.55,6.3,9.45,0,3-2,4.62-4.9,4.62s-4.52-2.3-4.65-5l2.95-.42c.13,1.82.85,2.72,1.85,2.72a1.59,1.59,0,0,0,1.8-1.65c0-3.57-6.3-4.52-6.3-9.7,0-2.87,1.75-4.5,4.8-4.5,2.52,0,4,1.83,4.3,4.37Z"/><circle class="cls-1" cx="42.67" cy="33.11" r="4.33"/><path class="cls-2" d="M34.76,46.53V41c0-2,2.05-3.6,4.57-3.6H46c2.51,0,4.57,1.62,4.57,3.6v5.49"/></svg>