<svg id="Layer_1" data-name="Layer 1" xmlns="http://www.w3.org/2000/svg" viewBox="0 0 124.5 49.09"><defs><style>.cls-1,.cls-2{fill:#004990;}.cls-2{fill-rule:evenodd;}</style></defs><title>Menu_contactanos</title><path class="cls-1" d="M6.25,10.57V9.17C6.25,7.65,5.55,7,4.75,7,3.5,7,3.1,7.65,3.1,9v9.15c0,1.35.4,2,1.65,2s1.5-.65,1.5-1.83V16.15h3.1v2.07a4.29,4.29,0,0,1-4.6,4.62C1.5,22.84,0,20.77,0,18.22V8.92C0,6.37,1.5,4.3,4.75,4.3c3.1,0,4.6,2.25,4.6,4.95v1.32Z"/><path class="cls-1" d="M12.5,8.92c0-2.55,1.5-4.62,4.75-4.62S22,6.37,22,8.92v9.3c0,2.55-1.5,4.62-4.75,4.62s-4.75-2.07-4.75-4.62Zm3.1,9.22c0,1.35.4,2,1.65,2s1.65-.65,1.65-2V9c0-1.35-.4-2-1.65-2s-1.65.65-1.65,2Z"/><path class="cls-1" d="M25,22.59v-18h2.87l3.77,10.32h.05V4.55h2.8v18H31.8L27.85,11.32H27.8V22.59Z"/><path class="cls-1" d="M39.3,7.25h-3V4.55h9.1v2.7h-3V22.59H39.3Z"/><path class="cls-1" d="M48.57,22.59h-3l3.32-18h3.85l3.32,18h-3l-.55-4h-3.4Zm2.55-19H49L51,0H54.4ZM49.57,15.9h2.5L50.85,8.15H50.8Z"/><path class="cls-1" d="M64.12,10.57V9.17c0-1.52-.7-2.17-1.5-2.17C61.37,7,61,7.65,61,9v9.15c0,1.35.4,2,1.65,2s1.5-.65,1.5-1.83V16.15h3.1v2.07a4.29,4.29,0,0,1-4.6,4.62c-3.25,0-4.75-2.07-4.75-4.62V8.92c0-2.55,1.5-4.62,4.75-4.62s4.6,2.25,4.6,4.95v1.32Z"/><path class="cls-1" d="M72.17,7.25h-3V4.55h9.1v2.7h-3V22.59h-3.1Z"/><path class="cls-1" d="M81.45,22.59h-3l3.32-18h3.85l3.32,18h-3l-.55-4H82Zm1-6.7h2.5L83.72,8.15h-.05Z"/><path class="cls-1" d="M90.75,22.59v-18h2.87L97.4,14.87h0V4.55h2.8v18h-2.7L93.6,11.32h-.05V22.59Z"/><path class="cls-1" d="M103.25,8.92c0-2.55,1.5-4.62,4.75-4.62s4.75,2.08,4.75,4.62v9.3c0,2.55-1.5,4.62-4.75,4.62s-4.75-2.07-4.75-4.62Zm3.1,9.22c0,1.35.4,2,1.65,2s1.65-.65,1.65-2V9c0-1.35-.4-2-1.65-2s-1.65.65-1.65,2Z"/><path class="cls-1" d="M121.4,9c-.12-1.55-.95-2-1.65-2-1,0-1.55.65-1.55,1.77,0,3.07,6.3,4.55,6.3,9.45,0,3-2,4.62-4.9,4.62s-4.52-2.3-4.65-5l2.95-.42c.13,1.82.85,2.72,1.85,2.72a1.59,1.59,0,0,0,1.8-1.65c0-3.57-6.3-4.52-6.3-9.7,0-2.87,1.75-4.5,4.8-4.5,2.52,0,4,1.83,4.3,4.37Z"/><path class="cls-2" d="M71.66,40.42v8.33a1.15,1.15,0,0,1-1.15,1.15H54.46a1.15,1.15,0,0,1-1.15-1.15V40.42l.08,0,8,4.55a2.29,2.29,0,0,0,2.28,0l8-4.55.08,0Zm-9.17,3.75a1.14,1.14,0,0,0,.57-.15l8-4.56a1.15,1.15,0,0,0,.63-1V37.29a1.15,1.15,0,0,0-1.15-1.15H54.46a1.15,1.15,0,0,0-1.15,1.15v1.15a1.15,1.15,0,0,0,.63,1l8,4.56A1.14,1.14,0,0,0,62.49,44.16Z"/></svg>