<svg id="Layer_1" data-name="Layer 1" xmlns="http://www.w3.org/2000/svg" viewBox="0 0 54.55 48.27"><defs><style>.cls-1,.cls-2{fill:#004990;}.cls-2{fill-rule:evenodd;}</style></defs><title>Menu_bases</title><path class="cls-1" d="M0,.25H4.6C7.92.25,9.4,2,9.4,5A3.88,3.88,0,0,1,7.25,8.8c1.57.7,2.5,2,2.5,4.27,0,3-1.32,5.22-4.85,5.22H0Zm3.1,7.4H4.22A2,2,0,0,0,6.3,5.35c0-1.67-.65-2.55-2-2.55H3.1Zm0,8.1H4.4C6,15.75,6.65,14.8,6.65,13S5.95,10.2,4.1,10.2h-1Z"/><path class="cls-1" d="M14.3,18.3h-3l3.32-18h3.85l3.32,18h-3l-.55-4h-3.4Zm1-6.7h2.5L16.57,3.85h-.05Z"/><path class="cls-1" d="M29.25,4.7c-.12-1.55-1-2-1.65-2-1,0-1.55.65-1.55,1.77,0,3.07,6.3,4.55,6.3,9.45,0,3-2,4.62-4.9,4.62s-4.52-2.3-4.65-5l2.95-.42c.13,1.82.85,2.72,1.85,2.72a1.59,1.59,0,0,0,1.8-1.65c0-3.57-6.3-4.52-6.3-9.7,0-2.87,1.75-4.5,4.8-4.5,2.52,0,4,1.83,4.3,4.37Z"/><path class="cls-1" d="M34.7,18.3V.25H43v2.7H37.8V7.6h4v2.7h-4v5.3h5.55v2.7Z"/><path class="cls-1" d="M51.45,4.7c-.12-1.55-1-2-1.65-2-1,0-1.55.65-1.55,1.77,0,3.07,6.3,4.55,6.3,9.45,0,3-2,4.62-4.9,4.62s-4.52-2.3-4.65-5l2.95-.42c.13,1.82.85,2.72,1.85,2.72a1.59,1.59,0,0,0,1.8-1.65c0-3.57-6.3-4.52-6.3-9.7C45.3,1.63,47,0,50.1,0c2.52,0,4,1.83,4.3,4.37Z"/><path class="cls-2" d="M23.72,31.47h2.61V30.6a.87.87,0,1,1,1.74,0v.87h2.61V30.6a.87.87,0,0,1,1.74,0v.87a1.74,1.74,0,0,1,1.74,1.74V46.53a1.74,1.74,0,0,1-1.74,1.74H22a1.74,1.74,0,0,1-1.74-1.74V33.2A1.74,1.74,0,0,1,22,31.47V30.6a.87.87,0,0,1,1.74,0v.87ZM22.56,42.18a.58.58,0,1,0,0,1.16h9.27a.58.58,0,1,0,0-1.16Zm0-2.9a.58.58,0,0,0,0,1.16h9.27a.58.58,0,1,0,0-1.16Zm0-2.9a.58.58,0,1,0,0,1.16h9.27a.58.58,0,1,0,0-1.16Z"/></svg>