<svg id="Layer_1" data-name="Layer 1" xmlns="http://www.w3.org/2000/svg" viewBox="0 0 144.75 50.38"><defs><style>.cls-1{fill:#004990;}</style></defs><title>Menu_compra online</title><path class="cls-1" d="M6.25,6V4.62c0-1.52-.7-2.17-1.5-2.17-1.25,0-1.65.65-1.65,2V13.6c0,1.35.4,2,1.65,2s1.5-.65,1.5-1.83V11.6h3.1v2.07a4.29,4.29,0,0,1-4.6,4.62C1.5,18.3,0,16.22,0,13.67V4.37C0,1.83,1.5-.25,4.75-.25c3.1,0,4.6,2.25,4.6,4.95V6Z"/><path class="cls-1" d="M12.5,4.37c0-2.55,1.5-4.62,4.75-4.62S22,1.83,22,4.37v9.3c0,2.55-1.5,4.62-4.75,4.62s-4.75-2.07-4.75-4.62Zm3.1,9.22c0,1.35.4,2,1.65,2s1.65-.65,1.65-2V4.45c0-1.35-.4-2-1.65-2s-1.65.65-1.65,2Z"/><path class="cls-1" d="M37.42,0V18h-2.7V3.95h0L31.87,18h-1.5l-2.8-14.1h-.05V18h-2.7V0H28.9l2.2,10.55h0L33.35,0Z"/><path class="cls-1" d="M40.27,18V0h4.45c3.82,0,5.6,1.47,5.6,5.32s-1.77,5.32-5.6,5.32H43.37V18Zm3.1-9.95h1.2c2,0,2.65-.62,2.65-2.77s-.62-2.77-2.65-2.77h-1.2Z"/><path class="cls-1" d="M55.87,18h-3.1V0h4.35c3.47,0,5.25,1.47,5.25,5.32,0,2.9-1.12,4.07-2.17,4.55L62.82,18H59.67l-2.2-7.47a14.74,14.74,0,0,1-1.6.08Zm0-9.95H57c1.67,0,2.3-.62,2.3-2.77S58.65,2.55,57,2.55h-1.1Z"/><path class="cls-1" d="M67.07,18h-3L67.4,0h3.85l3.32,18h-3L71,14h-3.4Zm1-6.7h2.5L69.35,3.6H69.3Z"/><path class="cls-1" d="M81.92,4.37c0-2.55,1.5-4.62,4.75-4.62s4.75,2.08,4.75,4.62v9.3c0,2.55-1.5,4.62-4.75,4.62s-4.75-2.07-4.75-4.62ZM85,13.6c0,1.35.4,2,1.65,2s1.65-.65,1.65-2V4.45c0-1.35-.4-2-1.65-2S85,3.1,85,4.45Z"/><path class="cls-1" d="M94.42,18V0H97.3l3.77,10.32h.05V0h2.8V18h-2.7L97.27,6.77h-.05V18Z"/><path class="cls-1" d="M106.77,18V0h3.1V15.35h4.87V18Z"/><path class="cls-1" d="M117.07,18V0h3.1V18Z"/><path class="cls-1" d="M123.6,18V0h2.87l3.77,10.32h.05V0h2.8V18h-2.7L126.45,6.77h-.05V18Z"/><path class="cls-1" d="M136.1,18V0h8.3V2.7h-5.2V7.35h4V10h-4v5.3h5.55V18Z"/><path class="cls-1" d="M83.23,35.23h-17L65.54,33a.53.53,0,0,0-.51-.38H61.12a.53.53,0,1,0,0,1.06h3.52l.54,1.78a.56.56,0,0,0-.2.5l1.48,8.7a.69.69,0,0,0,.4.47v1.1a2.18,2.18,0,0,0,2.27,2.08H70a1.43,1.43,0,1,0,2.58,0H75.9a1.43,1.43,0,1,0,2.58,0h1.2a.53.53,0,1,0,0-1.06H69.13a1.13,1.13,0,0,1-1.21-1v-1l12.12,0a.93.93,0,0,0,.9-.5l3.18-8.75C84.28,35.66,83.84,35.23,83.23,35.23Z"/></svg>