<svg id="Layer_1" data-name="Layer 1" xmlns="http://www.w3.org/2000/svg" viewBox="0 0 98.67 63.56"><defs><style>.cls-1{fill:#004990;}</style></defs><title>Menu_programa cliente vip</title><path class="cls-1" d="M4.47,16.83V.23H8.57c3.52,0,5.15,1.36,5.15,4.9S12.08,10,8.57,10H7.32v6.81ZM7.32,7.68h1.1c1.86,0,2.44-.57,2.44-2.55s-.58-2.55-2.44-2.55H7.32Z"/><path class="cls-1" d="M18.82,16.83H16V.23h4c3.2,0,4.83,1.36,4.83,4.9,0,2.67-1,3.75-2,4.18l2.41,7.52h-2.9L20.3,10a13.51,13.51,0,0,1-1.47.07Zm0-9.15h1c1.54,0,2.12-.57,2.12-2.55s-.57-2.55-2.12-2.55h-1Z"/><path class="cls-1" d="M27.47,4.25A4,4,0,0,1,31.84,0a4,4,0,0,1,4.37,4.25v8.55a4,4,0,0,1-4.37,4.25,4,4,0,0,1-4.37-4.25Zm2.85,8.49c0,1.24.37,1.84,1.52,1.84s1.52-.6,1.52-1.84V4.32c0-1.24-.37-1.84-1.52-1.84s-1.52.6-1.52,1.84Z"/><path class="cls-1" d="M42.9,8.42h4.67v8.42H46.19l-.53-1.24a3.31,3.31,0,0,1-2.87,1.47c-2.25,0-3.82-1.61-3.82-4.25V4.25A3.94,3.94,0,0,1,43.16,0C46,0,47.43,2.07,47.43,4.55V5.61H44.72c0-2.48-.51-3.13-1.63-3.13-.69,0-1.26.41-1.26,1.82v8.53c0,1.06.35,1.75,1.33,1.75,1.15,0,1.56-.64,1.56-2.3V10.67H42.9Z"/><path class="cls-1" d="M53.32,16.83H50.47V.23h4c3.2,0,4.83,1.36,4.83,4.9,0,2.67-1,3.75-2,4.18l2.41,7.52h-2.9L54.8,10a13.51,13.51,0,0,1-1.47.07Zm0-9.15h1c1.54,0,2.12-.57,2.12-2.55s-.57-2.55-2.12-2.55h-1Z"/><path class="cls-1" d="M63.63,16.83H60.87L63.93.23h3.54l3.06,16.6H67.77l-.51-3.68H64.13Zm.92-6.16h2.3L65.72,3.54h0Z"/><path class="cls-1" d="M83.61.23v16.6H81.13v-13h0l-2.58,13H77.13l-2.58-13h0v13H72V.23h3.75l2,9.7h0l2-9.7Z"/><path class="cls-1" d="M87.89,16.83H85.13L88.19.23h3.54l3.06,16.6H92l-.51-3.68H88.4Zm.92-6.16h2.3L90,3.54h0Z"/><path class="cls-1" d="M5.75,26.77V25.48c0-1.4-.64-2-1.38-2-1.15,0-1.52.6-1.52,1.84v8.42c0,1.24.37,1.84,1.52,1.84S5.75,35,5.75,33.9v-2H8.6v1.91a4,4,0,0,1-4.23,4.25A4,4,0,0,1,0,33.81V25.25A4,4,0,0,1,4.37,21c2.85,0,4.23,2.07,4.23,4.55v1.22Z"/><path class="cls-1" d="M11.36,37.83V21.23h2.85V35.35H18.7v2.48Z"/><path class="cls-1" d="M20.84,37.83V21.23h2.85v16.6Z"/><path class="cls-1" d="M26.84,37.83V21.23h7.63v2.48H29.69V28h3.68v2.48H29.69v4.87h5.1v2.48Z"/><path class="cls-1" d="M37.05,37.83V21.23H39.7l3.47,9.5h0v-9.5h2.58v16.6H43.31L39.67,27.46h0V37.83Z"/><path class="cls-1" d="M50.21,23.71H47.45V21.23h8.37v2.48H53.06V37.83H50.21Z"/><path class="cls-1" d="M57.5,37.83V21.23h7.63v2.48H60.35V28H64v2.48H60.35v4.87h5.1v2.48Z"/><path class="cls-1" d="M78.63,21.23h2.81L78,37.83H75.12l-3.47-16.6h2.81l2.07,11.52h0Z"/><path class="cls-1" d="M83.42,37.83V21.23h2.85v16.6Z"/><path class="cls-1" d="M89.42,37.83V21.23h4.09c3.52,0,5.15,1.36,5.15,4.9S97,31,93.52,31H92.27v6.81Zm2.85-9.15h1.1c1.86,0,2.44-.57,2.44-2.55s-.58-2.55-2.44-2.55h-1.1Z"/><path class="cls-1" d="M58.64,53.38l-9.41-7.32-9.71,7.32h2.14a1.39,1.39,0,0,0,0,.2v8.55a1.43,1.43,0,0,0,1.42,1.42h4.26V58.37h3.83v5.18h4.26a1.43,1.43,0,0,0,1.42-1.42V53.58a1.39,1.39,0,0,0,0-.2Z"/></svg>